<svg id="Layer_1" data-name="Layer 1" xmlns="http://www.w3.org/2000/svg" viewBox="0 0 54.81 44.72"><defs><style>.cls-1{fill:#dfdfdf;}.cls-2{fill:#2f2f2f;}</style></defs><path class="cls-1" d="M49.59,33.54H5.22a.74.74,0,0,1-.75-.74V4.28a.74.74,0,0,1,.75-.74H49.59a.74.74,0,0,1,.74.74V32.8A.74.74,0,0,1,49.59,33.54ZM6,32.05H48.84V5H6Z"/><rect class="cls-2" x="9.29" y="7.89" width="36.23" height="21.3"/><path class="cls-1" d="M45.52,29.93H9.29a.75.75,0,0,1-.75-.74V7.89a.76.76,0,0,1,.75-.75H45.52a.75.75,0,0,1,.74.75v21.3A.74.74,0,0,1,45.52,29.93ZM10,28.44H44.77V8.63H10Z"/><path class="cls-1" d="M54.06,40.84H.75a.78.78,0,0,1-.66-.38.75.75,0,0,1,0-.75l4.47-7.3a.74.74,0,0,1,.64-.36H49.59a.71.71,0,0,1,.63.36l4.48,7.3a.75.75,0,0,1-.64,1.13Zm-52-1.49H52.73l-3.56-5.81H5.63Z"/><path class="cls-1" d="M54.06,44.72H.75A.74.74,0,0,1,0,44V40.1a.74.74,0,0,1,.75-.75H54.06a.75.75,0,0,1,.75.75V44A.75.75,0,0,1,54.06,44.72ZM1.49,43.23H53.31V40.84H1.49Z"/><rect x="15.01" y="0.75" width="24.74" height="28.44"/><path class="cls-1" d="M39.75,29.93H15a.74.74,0,0,1-.74-.74V.75A.74.74,0,0,1,15,0H39.75a.74.74,0,0,1,.75.75V29.19A.74.74,0,0,1,39.75,29.93Zm-24-1.49H39V1.49H15.76Z"/><path class="cls-1" d="M34.93,13.1h-15a.75.75,0,1,1,0-1.49H34.93a.75.75,0,0,1,0,1.49Z"/><path class="cls-1" d="M34.93,7.3h-15a.75.75,0,0,1-.75-.75.74.74,0,0,1,.75-.74H34.93a.74.74,0,0,1,.74.74A.75.75,0,0,1,34.93,7.3Z"/><path class="cls-1" d="M34.93,16.75h-15a.74.74,0,0,1-.75-.74.75.75,0,0,1,.75-.75H34.93a.75.75,0,0,1,.74.75A.74.74,0,0,1,34.93,16.75Z"/><path class="cls-1" d="M34.93,20.41h-15a.75.75,0,0,1-.75-.75.74.74,0,0,1,.75-.74H34.93a.74.74,0,0,1,.74.74A.75.75,0,0,1,34.93,20.41Z"/><path class="cls-1" d="M34.93,24.06h-15a.74.74,0,0,1-.75-.74.75.75,0,0,1,.75-.75H34.93a.75.75,0,0,1,.74.75A.74.74,0,0,1,34.93,24.06Z"/></svg>