<svg id="Layer_1" data-name="Layer 1" xmlns="http://www.w3.org/2000/svg" viewBox="0 0 51.3 42.97"><defs><style>.cls-1{fill:#dce0df;}.cls-2{fill:none;}.cls-3{fill:#fff;}</style></defs><rect x="15.41" y="29.19" width="20.49" height="9.63"/><path class="cls-1" d="M35.89,39.56H15.41a.75.75,0,0,1-.75-.74V29.19a.76.76,0,0,1,.75-.75H35.89a.75.75,0,0,1,.75.75v9.63A.74.74,0,0,1,35.89,39.56ZM16.15,38.07h19V29.93h-19Z"/><rect x="0.75" y="0.75" width="49.81" height="31.64"/><path class="cls-1" d="M50.56,33.13H.75A.74.74,0,0,1,0,32.38V.75A.74.74,0,0,1,.75,0H50.56a.74.74,0,0,1,.74.75V32.38A.74.74,0,0,1,50.56,33.13ZM1.49,31.64H49.81V1.49H1.49Z"/><rect class="cls-2" x="0.75" y="3.94" width="49.81" height="23.48"/><path class="cls-1" d="M50.56,28.17H.75A.75.75,0,0,1,0,27.42V3.94A.74.74,0,0,1,.75,3.2H50.56a.74.74,0,0,1,.74.74V27.42A.75.75,0,0,1,50.56,28.17ZM1.49,26.68H49.81v-22H1.49Z"/><rect x="11.66" y="38.82" width="27.97" height="3.41"/><path class="cls-1" d="M39.64,43h-28a.74.74,0,0,1-.74-.74V38.82a.75.75,0,0,1,.74-.75h28a.75.75,0,0,1,.74.75v3.41A.74.74,0,0,1,39.64,43ZM12.41,41.48H38.89V39.56H12.41Z"/><path class="cls-3" d="M40.38,19.13c0,.45-.09.9-.12,1.35a1.24,1.24,0,0,1-1.2,1.29,13.55,13.55,0,0,1-1.43.09q-12,0-24,0a13.55,13.55,0,0,1-1.43-.09,1.23,1.23,0,0,1-1.2-1.28c0-.57,0-1.14-.06-1.7a5.41,5.41,0,0,0-.07-.58V13.49c0-.82.06-1.65.12-2.47a1.68,1.68,0,0,1,.17-.74,1.33,1.33,0,0,1,1.23-.73c2.44,0,4.88-.05,7.33-.05,6.15,0,12.3,0,18.45.05.26,0,.52,0,.78,0a1.35,1.35,0,0,1,1.26,1.19c.05.43.08.86.12,1.29Zm-21.65-.64-.3-6.82c-.43,0-.75-.05-1.07-.05-.72,0-.73,0-.93.71-.26.95-.5,1.91-.77,3a4,4,0,0,1-.14-.46c-.16-.7-.27-1.41-.47-2.1-.34-1.24-.12-1.12-1.47-1.12-.63,0-.65,0-.69.68-.08,1.32-.17,2.65-.23,4,0,.73,0,1.46,0,2.18.08,0,.12.07.16.07,1.4.1,1.2.06,1.24-1.06,0-.66.07-1.32.1-2a20.35,20.35,0,0,1,.69,2.41c.15.59.22.62.81.61.38,0,.53-.2.61-.54.23-.92.48-1.84.72-2.76a12.72,12.72,0,0,1,.22,2.2C17.25,18.68,17.25,18.68,18.73,18.49Zm16-.21-1-.39a4.8,4.8,0,0,0,.44-5,2.25,2.25,0,0,0-2.07-1.37,2.33,2.33,0,0,0-2.22,1.24,4.7,4.7,0,0,0-.37,4,2.8,2.8,0,0,0,1.8,1.85c.66.23,1.3.5,1.95.74l1,.4ZM27.87,13.4c.09-.39.17-.74.26-1.09a.4.4,0,0,0-.33-.54,6.17,6.17,0,0,0-1.35-.18,1.93,1.93,0,0,0-1.89,1.68,2.07,2.07,0,0,0,.94,2.21c.32.22.67.4,1,.6a.51.51,0,0,1,.3.59.49.49,0,0,1-.55.37,4.92,4.92,0,0,1-.77-.11c-.23-.05-.44-.15-.74-.25-.1.45-.19.84-.27,1.24a.35.35,0,0,0,.29.44,8,8,0,0,0,1.66.27,2,2,0,0,0,1.87-1.48,2.17,2.17,0,0,0-.82-2.49c-.25-.18-.53-.31-.79-.47a2.49,2.49,0,0,1-.43-.29.41.41,0,0,1,.2-.74,1.79,1.79,0,0,1,.65,0C27.34,13.24,27.56,13.32,27.87,13.4Zm-8,7.32A1.76,1.76,0,0,0,21.26,20a6.83,6.83,0,0,0,.89-1.66c.48-1.42.88-2.88,1.3-4.32a3.51,3.51,0,0,0,0-.53c-.37,0-.69,0-1,0a.48.48,0,0,0-.58.46c-.12.62-.26,1.23-.39,1.85h-.09l-.59-2.27a3.93,3.93,0,0,0-1.6.06c.07.25.11.46.18.66.34,1.1.7,2.2,1,3.3.27.87.22,1-.55,1.5-.17.11-.34.2-.28.45S19.78,20.28,19.88,20.72Zm19.31-4H37.24c0-1.4,0-2.71,0-4s-.15-1.3-1.36-1.06l-.05,0a37.52,37.52,0,0,0,0,6.79h3.37Z"/><path class="cls-3" d="M30.83,15a9.33,9.33,0,0,1,.42-1.42.81.81,0,0,1,1.5,0,3.37,3.37,0,0,1,0,3,.82.82,0,0,1-1.48.05A3.66,3.66,0,0,1,30.83,15Z"/></svg>