<svg id="Livello_1" data-name="Livello 1" xmlns="http://www.w3.org/2000/svg" viewBox="0 0 80.35 78.75"><defs><style>.cls-1{fill:#e8ebec;}.cls-2{fill:#c6acb3;}.cls-3{fill:#fff;}.cls-4{fill:#ac182e;}</style></defs><circle class="cls-1" cx="14" cy="43.75" r="14"/><circle class="cls-1" cx="53" cy="12" r="12"/><circle class="cls-1" cx="60.35" cy="58.75" r="20"/><path class="cls-2" d="M7.75,38h64a0,0,0,0,1,0,0V68a2,2,0,0,1-2,2h-60a2,2,0,0,1-2-2V38A0,0,0,0,1,7.75,38Z"/><path class="cls-3" d="M7.75,38h60a0,0,0,0,1,0,0V65a1,1,0,0,1-1,1h-56a3,3,0,0,1-3-3V38A0,0,0,0,1,7.75,38Z"/><path class="cls-4" d="M69.75,70.75h-60A2.75,2.75,0,0,1,7,68V38a.76.76,0,0,1,.75-.75h64a.76.76,0,0,1,.75.75V68A2.75,2.75,0,0,1,69.75,70.75ZM8.5,38.75V68a1.25,1.25,0,0,0,1.25,1.25h60A1.25,1.25,0,0,0,71,68V38.75Z"/><path class="cls-2" d="M30.75,59h18a2,2,0,0,1,2,2v9a0,0,0,0,1,0,0h-22a0,0,0,0,1,0,0V61A2,2,0,0,1,30.75,59Z"/><path class="cls-3" d="M30.75,59h15a2,2,0,0,1,2,2v6a1,1,0,0,1-1,1h-18a0,0,0,0,1,0,0V61A2,2,0,0,1,30.75,59Z"/><path class="cls-4" d="M50.75,70.75h-22A.76.76,0,0,1,28,70V61a2.75,2.75,0,0,1,2.75-2.75h18A2.75,2.75,0,0,1,51.5,61v9A.76.76,0,0,1,50.75,70.75ZM29.5,69.25H50V61a1.25,1.25,0,0,0-1.25-1.25h-18A1.25,1.25,0,0,0,29.5,61Z"/><path class="cls-4" d="M12.75,55.75h-1a.75.75,0,0,1,0-1.5h1a.75.75,0,0,1,0,1.5Z"/><path class="cls-4" d="M63.18,55.75h-2a.75.75,0,0,1,0-1.5h2a.75.75,0,1,1,0,1.5Zm-5.6,0h-2a.75.75,0,1,1,0-1.5h2a.75.75,0,0,1,0,1.5ZM24,55.75h-2a.75.75,0,0,1,0-1.5h2a.75.75,0,1,1,0,1.5Zm-5.61,0h-2a.75.75,0,1,1,0-1.5h2a.75.75,0,0,1,0,1.5Z"/><path class="cls-4" d="M67.75,55.75h-1a.75.75,0,0,1,0-1.5h1a.75.75,0,0,1,0,1.5Z"/><path class="cls-4" d="M51.75,55.75h-24a.75.75,0,0,1,0-1.5h24a.75.75,0,0,1,0,1.5Z"/><path class="cls-4" d="M12.75,51.75h-1a.75.75,0,0,1,0-1.5h1a.75.75,0,0,1,0,1.5Z"/><path class="cls-4" d="M63.69,51.75h-2a.75.75,0,0,1,0-1.5h2a.75.75,0,0,1,0,1.5Zm-5.09,0h-2a.75.75,0,0,1,0-1.5h2a.75.75,0,0,1,0,1.5Zm-5.1,0h-2a.75.75,0,0,1,0-1.5h2a.75.75,0,0,1,0,1.5Zm-5.09,0h-2a.75.75,0,0,1,0-1.5h2a.75.75,0,0,1,0,1.5Zm-5.09,0h-2a.75.75,0,0,1,0-1.5h2a.75.75,0,0,1,0,1.5Zm-5.1,0h-2a.75.75,0,0,1,0-1.5h2a.75.75,0,0,1,0,1.5Zm-5.09,0h-2a.75.75,0,0,1,0-1.5h2a.75.75,0,0,1,0,1.5Zm-5.1,0H26a.75.75,0,0,1,0-1.5h2a.75.75,0,0,1,0,1.5Zm-5.09,0h-2a.75.75,0,0,1,0-1.5h2a.75.75,0,0,1,0,1.5Zm-5.1,0h-2a.75.75,0,0,1,0-1.5h2a.75.75,0,1,1,0,1.5Z"/><path class="cls-4" d="M67.75,51.75h-1a.75.75,0,0,1,0-1.5h1a.75.75,0,0,1,0,1.5Z"/><path class="cls-4" d="M12.75,47.75h-1a.75.75,0,0,1,0-1.5h1a.75.75,0,0,1,0,1.5Z"/><path class="cls-4" d="M63.18,47.75h-2a.75.75,0,0,1,0-1.5h2a.75.75,0,1,1,0,1.5Zm-5.6,0h-2a.75.75,0,1,1,0-1.5h2a.75.75,0,0,1,0,1.5Zm-5.6,0h-2a.75.75,0,0,1,0-1.5h2a.75.75,0,0,1,0,1.5Zm-5.61,0h-2a.75.75,0,0,1,0-1.5h2a.75.75,0,1,1,0,1.5Zm-5.6,0h-2a.75.75,0,1,1,0-1.5h2a.75.75,0,1,1,0,1.5Zm-5.61,0h-2a.75.75,0,1,1,0-1.5h2a.75.75,0,0,1,0,1.5Zm-5.6,0h-2a.75.75,0,1,1,0-1.5h2a.75.75,0,1,1,0,1.5Zm-5.6,0h-2a.75.75,0,0,1,0-1.5h2a.75.75,0,1,1,0,1.5Zm-5.61,0h-2a.75.75,0,0,1,0-1.5h2a.75.75,0,0,1,0,1.5Z"/><path class="cls-4" d="M67.75,47.75h-1a.75.75,0,0,1,0-1.5h1a.75.75,0,0,1,0,1.5Z"/><path class="cls-4" d="M12.75,43.75h-1a.75.75,0,0,1,0-1.5h1a.75.75,0,0,1,0,1.5Z"/><path class="cls-4" d="M63.69,43.75h-2a.75.75,0,0,1,0-1.5h2a.75.75,0,0,1,0,1.5Zm-5.09,0h-2a.75.75,0,0,1,0-1.5h2a.75.75,0,0,1,0,1.5Zm-5.1,0h-2a.75.75,0,0,1,0-1.5h2a.75.75,0,0,1,0,1.5Zm-5.09,0h-2a.75.75,0,0,1,0-1.5h2a.75.75,0,0,1,0,1.5Zm-5.09,0h-2a.75.75,0,0,1,0-1.5h2a.75.75,0,0,1,0,1.5Zm-5.1,0h-2a.75.75,0,0,1,0-1.5h2a.75.75,0,0,1,0,1.5Zm-5.09,0h-2a.75.75,0,0,1,0-1.5h2a.75.75,0,0,1,0,1.5Zm-5.1,0H26a.75.75,0,0,1,0-1.5h2a.75.75,0,0,1,0,1.5Zm-5.09,0h-2a.75.75,0,0,1,0-1.5h2a.75.75,0,0,1,0,1.5Zm-5.1,0h-2a.75.75,0,0,1,0-1.5h2a.75.75,0,1,1,0,1.5Z"/><path class="cls-4" d="M67.75,43.75h-1a.75.75,0,0,1,0-1.5h1a.75.75,0,0,1,0,1.5Z"/><path class="cls-2" d="M9.75,6h60a2,2,0,0,1,2,2V38a0,0,0,0,1,0,0h-64a0,0,0,0,1,0,0V8A2,2,0,0,1,9.75,6Z"/><path class="cls-3" d="M9.75,6h56a3,3,0,0,1,3,3V32a3,3,0,0,1-3,3h-58a0,0,0,0,1,0,0V8A2,2,0,0,1,9.75,6Z"/><path class="cls-4" d="M71.75,38.75h-64A.76.76,0,0,1,7,38V8A2.75,2.75,0,0,1,9.75,5.25h60A2.75,2.75,0,0,1,72.5,8V38A.76.76,0,0,1,71.75,38.75ZM8.5,37.25H71V8a1.25,1.25,0,0,0-1.25-1.25h-60A1.25,1.25,0,0,0,8.5,8Z"/><rect class="cls-2" x="12.75" y="11" width="54" height="22" rx="1"/><path class="cls-3" d="M13.75,11h48a2,2,0,0,1,2,2V29a1,1,0,0,1-1,1h-48a2,2,0,0,1-2-2V12A1,1,0,0,1,13.75,11Z"/><path class="cls-4" d="M65.75,33.75h-52A1.76,1.76,0,0,1,12,32V12a1.75,1.75,0,0,1,1.75-1.75h52A1.75,1.75,0,0,1,67.5,12V32A1.76,1.76,0,0,1,65.75,33.75Zm-52-22a.25.25,0,0,0-.25.25V32a.25.25,0,0,0,.25.25h52A.25.25,0,0,0,66,32V12a.25.25,0,0,0-.25-.25Z"/><path class="cls-4" d="M33.06,28.75a.74.74,0,0,1-.62-.34l-4-6a.74.74,0,0,1,0-.83l4-6a.75.75,0,0,1,1-.2.74.74,0,0,1,.21,1L30,22l3.73,5.58a.75.75,0,0,1-.21,1A.72.72,0,0,1,33.06,28.75Z"/><path class="cls-4" d="M46.44,28.75a.72.72,0,0,1-.42-.13.75.75,0,0,1-.21-1L49.54,22l-3.73-5.59a.74.74,0,0,1,.21-1,.75.75,0,0,1,1,.2l4,6a.74.74,0,0,1,0,.83l-4,6A.74.74,0,0,1,46.44,28.75Z"/><path class="cls-4" d="M36.25,28.75a.75.75,0,0,1-.65-1.13l7-12a.75.75,0,0,1,1.3.76l-7,12A.75.75,0,0,1,36.25,28.75Z"/><path class="cls-4" d="M26.75,16.75h-4a.75.75,0,0,1,0-1.5h4a.75.75,0,0,1,0,1.5Z"/><path class="cls-4" d="M24.75,18.75A.76.76,0,0,1,24,18V14a.75.75,0,0,1,1.5,0v4A.75.75,0,0,1,24.75,18.75Z"/><path class="cls-4" d="M21.75,26.75h-4a.75.75,0,0,1,0-1.5h4a.75.75,0,0,1,0,1.5Z"/><path class="cls-4" d="M19.75,28.75A.76.76,0,0,1,19,28V24a.75.75,0,0,1,1.5,0v4A.76.76,0,0,1,19.75,28.75Z"/><path class="cls-4" d="M60.75,23.75h-4a.75.75,0,0,1,0-1.5h4a.75.75,0,0,1,0,1.5Z"/><path class="cls-4" d="M58.75,25.75A.76.76,0,0,1,58,25V21a.75.75,0,0,1,1.5,0v4A.75.75,0,0,1,58.75,25.75Z"/></svg>