<svg id="Livello_1" data-name="Livello 1" xmlns="http://www.w3.org/2000/svg" viewBox="0 0 75 76.74"><defs><style>.cls-1{fill:#e8ebec;}.cls-2{fill:#c6acb3;}.cls-3{fill:#fff;}.cls-4{fill:#ac182e;}</style></defs><circle class="cls-1" cx="14" cy="35.99" r="14"/><circle class="cls-1" cx="32.75" cy="12" r="12"/><circle class="cls-1" cx="55" cy="56.74" r="20"/><rect class="cls-2" x="13.25" y="6.75" width="44" height="64" rx="2"/><path class="cls-3" d="M15.25,6.75h39a0,0,0,0,1,0,0v59a2,2,0,0,1-2,2h-39a0,0,0,0,1,0,0v-59A2,2,0,0,1,15.25,6.75Z"/><path class="cls-4" d="M55.25,71.5h-40a2.75,2.75,0,0,1-2.75-2.75v-60A2.75,2.75,0,0,1,15.25,6h40A2.75,2.75,0,0,1,58,8.75v60A2.75,2.75,0,0,1,55.25,71.5Zm-40-64A1.25,1.25,0,0,0,14,8.75v60A1.25,1.25,0,0,0,15.25,70h40a1.25,1.25,0,0,0,1.25-1.25v-60A1.25,1.25,0,0,0,55.25,7.5Z"/><path class="cls-2" d="M41.25,70.75h-26a2,2,0,0,1-2-2v-60a2,2,0,0,1,2-2h34a2,2,0,0,1,2,2v52Z"/><path class="cls-3" d="M44.25,67.75h-31v-59a2,2,0,0,1,2-2h33v57Z"/><path class="cls-4" d="M41.25,71.5h-26a2.75,2.75,0,0,1-2.75-2.75v-60A2.75,2.75,0,0,1,15.25,6h34A2.75,2.75,0,0,1,52,8.75v52a.75.75,0,0,1-.22.53l-10,10A.75.75,0,0,1,41.25,71.5Zm-26-64A1.25,1.25,0,0,0,14,8.75v60A1.25,1.25,0,0,0,15.25,70H40.94l9.56-9.56V8.75A1.25,1.25,0,0,0,49.25,7.5Z"/><path class="cls-4" d="M13.25,18.5h-2a3.75,3.75,0,0,1,0-7.5h4A3.75,3.75,0,0,1,19,14.75a.75.75,0,0,1-1.5,0,2.25,2.25,0,0,0-2.25-2.25h-4a2.25,2.25,0,0,0,0,4.5h2a.75.75,0,0,1,0,1.5Z"/><path class="cls-4" d="M13.25,30.5h-2a3.75,3.75,0,0,1,0-7.5h4A3.75,3.75,0,0,1,19,26.75a.75.75,0,0,1-1.5,0,2.25,2.25,0,0,0-2.25-2.25h-4a2.25,2.25,0,0,0,0,4.5h2a.75.75,0,0,1,0,1.5Z"/><path class="cls-4" d="M13.25,42.5h-2a3.75,3.75,0,0,1,0-7.5h4A3.75,3.75,0,0,1,19,38.75a.75.75,0,0,1-1.5,0,2.25,2.25,0,0,0-2.25-2.25h-4a2.25,2.25,0,0,0,0,4.5h2a.75.75,0,0,1,0,1.5Z"/><path class="cls-4" d="M13.25,54.5h-2a3.75,3.75,0,0,1,0-7.5h4A3.75,3.75,0,0,1,19,50.75a.75.75,0,0,1-1.5,0,2.25,2.25,0,0,0-2.25-2.25h-4a2.25,2.25,0,0,0,0,4.5h2a.75.75,0,0,1,0,1.5Z"/><path class="cls-4" d="M13.25,66.5h-2a3.75,3.75,0,0,1,0-7.5h4A3.75,3.75,0,0,1,19,62.75a.75.75,0,0,1-1.5,0,2.25,2.25,0,0,0-2.25-2.25h-4a2.25,2.25,0,0,0,0,4.5h2a.75.75,0,0,1,0,1.5Z"/><polygon class="cls-2" points="41.25 60.75 41.25 70.75 51.25 60.75 41.25 60.75"/><polygon class="cls-3" points="41.25 60.75 41.25 70.75 46.25 60.75 41.25 60.75"/><path class="cls-4" d="M41.25,71.5a.72.72,0,0,1-.29-.06.74.74,0,0,1-.46-.69v-10a.74.74,0,0,1,.75-.75h10a.74.74,0,0,1,.69.46.76.76,0,0,1-.16.82l-10,10A.77.77,0,0,1,41.25,71.5Zm.75-10v7.44l7.44-7.44Z"/><polygon class="cls-2" points="37.02 42.91 62.47 17.46 66.01 20.99 41.97 45.03 37.02 42.91"/><path class="cls-3" d="M37,42.91l24-24,1.41,1.41a1,1,0,0,1,0,1.42L40,44.18Z"/><path class="cls-4" d="M42,45.78a.8.8,0,0,1-.3-.06l-5-2.12a.75.75,0,0,1-.44-.55.74.74,0,0,1,.21-.67L61.94,16.93a.74.74,0,0,1,1.06,0l3.54,3.53a.75.75,0,0,1,0,1.06l-24,24A.74.74,0,0,1,42,45.78Zm-3.64-3.12,3.46,1.48L65,21l-2.48-2.47Z"/><polygon class="cls-2" points="44.09 49.98 41.97 45.03 66.01 20.99 69.54 24.53 44.09 49.98"/><path class="cls-3" d="M43.24,48,42,45,64.59,22.41,66,23.82a1,1,0,0,1,0,1.41Z"/><path class="cls-4" d="M44.09,50.73H44a.75.75,0,0,1-.55-.44l-2.12-5a.75.75,0,0,1,.16-.83l24-24a.77.77,0,0,1,1.06,0L70.07,24a.75.75,0,0,1,0,1.06L44.62,50.51A.77.77,0,0,1,44.09,50.73ZM42.86,45.2l1.48,3.47L68.48,24.53,66,22.05Z"/><path class="cls-4" d="M70.25,26a.74.74,0,0,1-.53-.22l-8.49-8.48a.75.75,0,0,1,1.06-1.06l8.49,8.48a.75.75,0,0,1,0,1.06A.74.74,0,0,1,70.25,26Z"/><polygon class="cls-2" points="37.02 42.91 41.97 45.03 44.09 49.98 35.6 51.4 37.02 42.91"/><path class="cls-3" d="M36.54,45.74l2.57,1.1a2,2,0,0,1,1,1l1.1,2.56-5.66.95Z"/><path class="cls-4" d="M35.6,52.15a.75.75,0,0,1-.53-.22.76.76,0,0,1-.21-.66l1.42-8.48a.71.71,0,0,1,.38-.54.74.74,0,0,1,.65,0l4.95,2.12a.78.78,0,0,1,.4.4l2.12,4.95a.74.74,0,0,1,0,.65.78.78,0,0,1-.54.38l-8.49,1.42Zm2-8.17-1.09,6.5L43,49.4l-1.63-3.8Z"/><path class="cls-2" d="M64.77,16.72h6a2,2,0,0,1,2,2v3a0,0,0,0,1,0,0h-10a0,0,0,0,1,0,0v-3A2,2,0,0,1,64.77,16.72Z" transform="translate(33.45 -42.3) rotate(45.01)"/><path class="cls-3" d="M62.36,17.72h7a1,1,0,0,1,1,1v2a0,0,0,0,1,0,0h-8a0,0,0,0,1,0,0v-3A0,0,0,0,1,62.36,17.72Z" transform="translate(33.02 -41.29) rotate(44.99)"/><path class="cls-4" d="M69.54,25.28a.79.79,0,0,1-.53-.22L61.94,18a.75.75,0,0,1,0-1.06l2.12-2.13a2.82,2.82,0,0,1,3.89,0l4.24,4.25h0a2.74,2.74,0,0,1,0,3.89l-2.12,2.12A.77.77,0,0,1,69.54,25.28Zm-6-7.82,6,6,1.59-1.59a1.25,1.25,0,0,0,0-1.77l-4.24-4.24a1.27,1.27,0,0,0-1.77,0Z"/><path class="cls-4" d="M45.25,16.14H42a.75.75,0,0,1,0-1.5h3.28a.75.75,0,0,1,0,1.5Z"/><path class="cls-4" d="M35.6,52.15h-6a7.75,7.75,0,0,1,0-15.5h4a4.25,4.25,0,0,0,0-8.5H32.1a6.75,6.75,0,0,1,0-13.5H38a.75.75,0,0,1,0,1.5H32.1a5.25,5.25,0,0,0,0,10.5h1.5a5.75,5.75,0,0,1,0,11.5h-4a6.25,6.25,0,0,0,0,12.5h6a.75.75,0,0,1,0,1.5Z"/><path class="cls-4" d="M65.25,69.5h-4a.75.75,0,0,1,0-1.5h4a.75.75,0,0,1,0,1.5Z"/><path class="cls-4" d="M63.25,71.5a.76.76,0,0,1-.75-.75v-4a.75.75,0,0,1,1.5,0v4A.76.76,0,0,1,63.25,71.5Z"/><circle class="cls-4" cx="63.25" cy="62.75" r="0.75"/><circle class="cls-4" cx="63.25" cy="59.75" r="0.75"/><circle class="cls-4" cx="63.25" cy="55.75" r="0.75"/><circle class="cls-4" cx="63.25" cy="49.75" r="0.75"/><path class="cls-4" d="M72.25,33.75h-4a.75.75,0,0,1,0-1.5h4a.75.75,0,0,1,0,1.5Z"/><path class="cls-4" d="M70.25,35.75A.76.76,0,0,1,69.5,35V31A.75.75,0,0,1,71,31v4A.76.76,0,0,1,70.25,35.75Z"/><circle class="cls-4" cx="70.25" cy="39" r="0.75"/><circle class="cls-4" cx="70.25" cy="42" r="0.75"/><circle class="cls-4" cx="70.25" cy="46" r="0.75"/><circle class="cls-4" cx="70.25" cy="52" r="0.75"/></svg>