<svg id="Livello_1" data-name="Livello 1" xmlns="http://www.w3.org/2000/svg" viewBox="0 0 80.43 71.75"><defs><style>.cls-1{fill:#e8ebec;}.cls-2{fill:#c6acb3;}.cls-3{fill:#fff;}.cls-4{fill:#ac182e;}</style></defs><circle class="cls-1" cx="50.44" cy="57.75" r="14"/><circle class="cls-1" cx="12" cy="46.06" r="12"/><circle class="cls-1" cx="60.43" cy="25.5" r="20"/><rect class="cls-2" x="8.18" y="14.75" width="64" height="50" rx="4" transform="translate(80.36 79.5) rotate(180)"/><path class="cls-3" d="M11.18,17.75h54a4,4,0,0,1,4,4v40a3,3,0,0,1-3,3h-56a2,2,0,0,1-2-2v-42A3,3,0,0,1,11.18,17.75Z" transform="translate(77.36 82.5) rotate(180)"/><path class="cls-4" d="M68.18,65.5h-56a4.75,4.75,0,0,1-4.75-4.75v-42A4.75,4.75,0,0,1,12.18,14h56a4.75,4.75,0,0,1,4.75,4.75v42A4.75,4.75,0,0,1,68.18,65.5Zm-56-50a3.26,3.26,0,0,0-3.25,3.25v42A3.26,3.26,0,0,0,12.18,64h56a3.26,3.26,0,0,0,3.25-3.25v-42a3.26,3.26,0,0,0-3.25-3.25Z"/><rect class="cls-2" x="13.18" y="19.75" width="48" height="40" rx="2" transform="translate(74.36 79.5) rotate(180)"/><path class="cls-3" d="M15.18,22.75h41a2,2,0,0,1,2,2v33a2,2,0,0,1-2,2h-42a1,1,0,0,1-1-1v-34a2,2,0,0,1,2-2Z" transform="translate(71.36 82.5) rotate(180)"/><path class="cls-4" d="M59.18,60.5h-44a2.75,2.75,0,0,1-2.75-2.75v-36A2.75,2.75,0,0,1,15.18,19h44a2.75,2.75,0,0,1,2.75,2.75v36A2.75,2.75,0,0,1,59.18,60.5Zm-44-40a1.25,1.25,0,0,0-1.25,1.25v36A1.25,1.25,0,0,0,15.18,59h44a1.25,1.25,0,0,0,1.25-1.25v-36a1.25,1.25,0,0,0-1.25-1.25Z"/><circle class="cls-4" cx="66.68" cy="39.75" r="1"/><path class="cls-4" d="M66.68,48a.76.76,0,0,1-.75-.75v-3a.75.75,0,0,1,1.5,0v3A.75.75,0,0,1,66.68,48Z"/><path class="cls-4" d="M66.68,55a.76.76,0,0,1-.75-.75v-3a.75.75,0,0,1,1.5,0v3A.75.75,0,0,1,66.68,55Z"/><path class="cls-4" d="M66.68,29a.76.76,0,0,1-.75-.75v-3a.75.75,0,0,1,1.5,0v3A.75.75,0,0,1,66.68,29Z"/><path class="cls-4" d="M66.68,36a.76.76,0,0,1-.75-.75v-3a.75.75,0,0,1,1.5,0v3A.75.75,0,0,1,66.68,36Z"/><polygon class="cls-2" points="41.34 35.98 15.89 10.53 19.43 6.99 43.47 31.03 41.34 35.98"/><path class="cls-3" d="M41.34,36l-24-24,1.42-1.41a1,1,0,0,1,1.41,0L42.62,33Z"/><path class="cls-4" d="M41.34,36.73a.79.79,0,0,1-.53-.22L15.36,11.06a.75.75,0,0,1,0-1.06l3.53-3.54a.77.77,0,0,1,1.07,0l24,24a.77.77,0,0,1,.15.83l-2.12,5a.73.73,0,0,1-.54.44ZM17,10.53,41.09,34.67l1.49-3.47L19.42,8.05Z"/><polygon class="cls-2" points="48.41 28.91 43.47 31.03 19.43 6.99 22.96 3.46 48.41 28.91"/><path class="cls-3" d="M46.44,29.76l-3,1.27L20.84,8.41,22.25,7a1,1,0,0,1,1.42,0Z"/><path class="cls-4" d="M43.46,31.78a.79.79,0,0,1-.53-.22l-24-24a.75.75,0,0,1,0-1.06l3.54-3.53a.74.74,0,0,1,1.06,0L49,28.38a.76.76,0,0,1,.2.67.75.75,0,0,1-.44.55l-5,2.12A.77.77,0,0,1,43.46,31.78ZM20.49,7,43.64,30.14l3.46-1.48L23,4.52Z"/><path class="cls-4" d="M15.18,12a.74.74,0,0,1-.53-.22.75.75,0,0,1,0-1.06l8.49-8.48a.74.74,0,0,1,1.06,0,.75.75,0,0,1,0,1.06l-8.49,8.48A.73.73,0,0,1,15.18,12Z"/><polygon class="cls-2" points="41.34 35.98 43.47 31.03 48.41 28.91 49.83 37.4 41.34 35.98"/><path class="cls-3" d="M44.17,36.45l1.1-2.56a2,2,0,0,1,1-1l2.57-1.1.94,5.66Z"/><path class="cls-4" d="M49.83,38.15h-.12l-8.49-1.42a.76.76,0,0,1-.57-1l2.13-4.95a.73.73,0,0,1,.39-.4l4.95-2.12a.74.74,0,0,1,.65,0,.71.71,0,0,1,.38.54l1.42,8.48a.77.77,0,0,1-.21.66A.75.75,0,0,1,49.83,38.15ZM42.41,35.4l6.51,1.08L47.83,30,44,31.6Z"/><path class="cls-2" d="M14.66,2.72h6a2,2,0,0,1,2,2v3a0,0,0,0,1,0,0h-10a0,0,0,0,1,0,0v-3A2,2,0,0,1,14.66,2.72Z" transform="translate(1.48 14.02) rotate(-45)"/><path class="cls-3" d="M13.66,5.14h7a1,1,0,0,1,1,1v2a0,0,0,0,1,0,0h-8a0,0,0,0,1,0,0v-3A0,0,0,0,1,13.66,5.14Z" transform="translate(0.48 14.43) rotate(-45)"/><path class="cls-4" d="M15.89,11.28a.79.79,0,0,1-.53-.22L13.24,8.94a2.76,2.76,0,0,1,0-3.89h0L17.48.8a2.76,2.76,0,0,1,3.89,0l2.12,2.13a.75.75,0,0,1,0,1.06l-7.07,7.07A.79.79,0,0,1,15.89,11.28ZM14.3,6.11a1.24,1.24,0,0,0,0,1.76l1.59,1.6,6-6-1.59-1.6a1.27,1.27,0,0,0-1.77,0Z"/><polygon class="cls-2" points="49.83 37.4 56.37 47.4 43.29 47.4 49.83 37.4"/><polygon class="cls-3" points="47.85 40.42 52.41 47.4 43.29 47.4 47.85 40.42"/><path class="cls-4" d="M56.37,48.15H43.29a.75.75,0,0,1-.66-.4.74.74,0,0,1,0-.76L49.2,37a.78.78,0,0,1,1.26,0L57,47a.74.74,0,0,1,0,.76A.77.77,0,0,1,56.37,48.15Zm-11.69-1.5H55l-5.15-7.88Z"/><path class="cls-3" d="M43.29,47.4H56.37l4.81,7.36v3a2,2,0,0,1-2,2h-24Z"/><path class="cls-2" d="M60.27,59.42a2,2,0,0,0,.91-1.67v-3L56.37,47.4H43.29l-2,3h12a2,2,0,0,1,1.67.9Z"/><path class="cls-4" d="M59.18,60.5h-24a.75.75,0,0,1-.63-1.16L42.66,47a.74.74,0,0,1,.63-.34H56.37A.74.74,0,0,1,57,47l4.81,7.36a.73.73,0,0,1,.12.41v3A2.75,2.75,0,0,1,59.18,60.5ZM36.6,59H59.18a1.25,1.25,0,0,0,1.25-1.25V55L56,48.15H43.7Z"/><polygon class="cls-2" points="25.53 30.75 32.07 40.75 18.99 40.75 25.53 30.75"/><polygon class="cls-3" points="23.55 33.78 28.11 40.75 18.99 40.75 23.55 33.78"/><path class="cls-4" d="M32.07,41.5H19a.75.75,0,0,1-.66-.39.76.76,0,0,1,0-.77l6.54-10a.78.78,0,0,1,1.26,0l6.54,10a.75.75,0,0,1-.63,1.16ZM20.38,40h10.3l-5.15-7.88Z"/><path class="cls-3" d="M19,40.75H32.07l7.78,11.91-4.64,7.09h-20a2,2,0,0,1-2-2V49.63Z"/><path class="cls-2" d="M37.87,55.68l2-3L32.07,40.75H19l-2,3H29a2,2,0,0,1,1.67.91Z"/><path class="cls-4" d="M35.21,60.5h-20a2.75,2.75,0,0,1-2.75-2.75V49.63a.75.75,0,0,1,.12-.41l5.81-8.88A.77.77,0,0,1,19,40H32.07a.77.77,0,0,1,.63.34l7.78,11.9a.78.78,0,0,1,0,.83l-4.64,7.09A.75.75,0,0,1,35.21,60.5ZM13.93,49.86v7.89A1.25,1.25,0,0,0,15.18,59H34.81L39,52.66,31.66,41.5H19.39Z"/><circle class="cls-3" cx="21.55" cy="48.71" r="2"/><path class="cls-4" d="M21.55,51.46a2.75,2.75,0,1,1,2.75-2.75A2.75,2.75,0,0,1,21.55,51.46Zm0-4a1.25,1.25,0,1,0,1.25,1.25A1.25,1.25,0,0,0,21.55,47.46Z"/><circle class="cls-3" cx="28.07" cy="54.69" r="2"/><path class="cls-4" d="M28.07,57.44a2.75,2.75,0,1,1,2.75-2.75A2.75,2.75,0,0,1,28.07,57.44Zm0-4a1.25,1.25,0,1,0,1.25,1.25A1.25,1.25,0,0,0,28.07,53.44Z"/><circle class="cls-3" cx="51.07" cy="52.68" r="2"/><path class="cls-4" d="M51.07,55.44a2.75,2.75,0,1,1,2.75-2.75A2.75,2.75,0,0,1,51.07,55.44Zm0-4a1.25,1.25,0,1,0,1.25,1.25A1.25,1.25,0,0,0,51.07,51.44Z"/></svg>