<svg id="Livello_1" data-name="Livello 1" xmlns="http://www.w3.org/2000/svg" viewBox="0 0 72 74.9"><defs><style>.cls-1{fill:#e8ebec;}.cls-2{fill:#fff;}.cls-3{fill:#c6acb3;}.cls-4{fill:#ac182e;}</style></defs><circle class="cls-1" cx="23.75" cy="60.9" r="14"/><circle class="cls-1" cx="60" cy="24.34" r="12"/><circle class="cls-1" cx="20" cy="20" r="20"/><circle class="cls-2" cx="37" cy="36.9" r="27"/><path class="cls-3" d="M41.83,10.34A27,27,0,0,1,27,59.9a27.46,27.46,0,0,1-4.83-.44A27,27,0,1,0,41.83,10.34Z"/><path class="cls-4" d="M37,64.65A27.75,27.75,0,1,1,64.75,36.9,27.78,27.78,0,0,1,37,64.65Zm0-54A26.25,26.25,0,1,0,63.25,36.9,26.28,26.28,0,0,0,37,10.65Z"/><path class="cls-2" d="M33,49.44l-8.49-8.5A40.39,40.39,0,0,1,9.52,48.8L5,68.9l20.09-4.53A40.39,40.39,0,0,1,33,49.44Z"/><path class="cls-3" d="M33,49.44l-8.49-8.5a29.74,29.74,0,0,1-2.82,2.19l6,6a2,2,0,0,1,.17,2.63,41,41,0,0,0-6.72,13.48l4-.9A40.39,40.39,0,0,1,33,49.44Z"/><path class="cls-4" d="M5,69.65a.75.75,0,0,1-.73-.92L8.79,48.64a.73.73,0,0,1,.55-.56A40.12,40.12,0,0,0,24,40.38a.76.76,0,0,1,1,0l8.49,8.5a.73.73,0,0,1,0,1,40,40,0,0,0-7.69,14.63.78.78,0,0,1-.56.55L5.16,69.63Zm5.15-20.24L6,67.9l18.5-4.16a41.13,41.13,0,0,1,7.44-14.26L24.42,42A41.15,41.15,0,0,1,10.15,49.41Z"/><circle class="cls-2" cx="17.89" cy="56.01" r="3.5"/><path class="cls-3" d="M17.89,52.5a3.45,3.45,0,0,0-1.5.36,3.48,3.48,0,0,1,0,6.3,3.59,3.59,0,0,0,1.5.34,3.5,3.5,0,0,0,0-7Z"/><path class="cls-4" d="M17.89,60.25A4.25,4.25,0,1,1,22.14,56,4.25,4.25,0,0,1,17.89,60.25Zm0-7A2.75,2.75,0,1,0,20.64,56,2.75,2.75,0,0,0,17.89,53.25Z"/><path class="cls-4" d="M5,69.65a.79.79,0,0,1-.53-.22.75.75,0,0,1,0-1.06L14.88,58A.77.77,0,0,1,16,58,.75.75,0,0,1,16,59L5.53,69.43A.79.79,0,0,1,5,69.65Z"/><polygon class="cls-2" points="32.95 49.44 24.46 40.94 26.38 34.19 39.71 47.52 32.95 49.44"/><path class="cls-3" d="M39.71,47.51,26.38,34.19l-.89,3.11,8,8A1,1,0,0,1,33.07,47l-2,.57L33,49.44Z"/><path class="cls-4" d="M33,50.19a.75.75,0,0,1-.53-.22l-8.49-8.5a.74.74,0,0,1-.2-.73L25.66,34a.75.75,0,0,1,1.25-.32L40.24,47a.76.76,0,0,1,.19.72.75.75,0,0,1-.52.54l-6.75,1.92A.76.76,0,0,1,33,50.19ZM25.3,40.73l7.87,7.87,5.1-1.46L26.75,35.62Z"/><polygon class="cls-2" points="69 13.98 69 4.9 59.92 4.9 55.65 8.63 65.27 18.25 69 13.98"/><path class="cls-3" d="M66,4.9v7a3.05,3.05,0,0,1-.74,2L63.2,16.18l2.07,2.07L69,14V4.9Z"/><path class="cls-4" d="M65.27,19a.75.75,0,0,1-.53-.22L55.11,9.16a.77.77,0,0,1,0-1.1l4.27-3.73a.75.75,0,0,1,.5-.18H69a.75.75,0,0,1,.75.75V14a.73.73,0,0,1-.19.49l-3.73,4.27a.74.74,0,0,1-.54.26ZM56.74,8.67l8.49,8.48,3-3.45v-8h-8ZM69,14h0Z"/><polygon class="cls-3" points="55.65 8.63 26.38 34.19 39.71 47.51 65.27 18.25 55.65 8.63"/><path class="cls-2" d="M53.51,10.49,26.38,34.19,37.57,45.38,60,19.66A2,2,0,0,0,60,16.93Z"/><path class="cls-4" d="M39.71,48.26a.75.75,0,0,1-.53-.22L25.85,34.72a.75.75,0,0,1,0-1.1L55.15,8.06a.76.76,0,0,1,1,0l9.62,9.62a.74.74,0,0,1,0,1L40.27,48a.74.74,0,0,1-.54.25Zm-12.23-14L39.67,46.42,64.24,18.28,55.61,9.65Z"/><circle class="cls-2" cx="48.89" cy="25" r="2"/><path class="cls-4" d="M48.89,27.75A2.75,2.75,0,1,1,51.64,25,2.75,2.75,0,0,1,48.89,27.75Zm0-4A1.25,1.25,0,1,0,50.14,25,1.25,1.25,0,0,0,48.89,23.75Z"/><path class="cls-4" d="M50.31,24.34a.77.77,0,0,1-.53-.22.74.74,0,0,1,0-1.06L59.93,12.91A.75.75,0,0,1,61,14L50.84,24.12A.79.79,0,0,1,50.31,24.34Z"/><rect class="cls-3" x="34" y="60.9" width="6" height="6" rx="1"/><path class="cls-2" d="M35,60.9h3a0,0,0,0,1,0,0v3a1,1,0,0,1-1,1H34a0,0,0,0,1,0,0v-3A1,1,0,0,1,35,60.9Z"/><path class="cls-4" d="M39,67.65H35a1.75,1.75,0,0,1-1.75-1.75v-4A1.75,1.75,0,0,1,35,60.15h4a1.75,1.75,0,0,1,1.75,1.75v4A1.76,1.76,0,0,1,39,67.65Zm-4-6a.25.25,0,0,0-.25.25v4a.25.25,0,0,0,.25.25h4a.25.25,0,0,0,.25-.25v-4a.25.25,0,0,0-.25-.25Z"/><rect class="cls-3" x="34" y="6.89" width="6" height="6" rx="1"/><path class="cls-2" d="M35,6.89h3a0,0,0,0,1,0,0v3a1,1,0,0,1-1,1H34a0,0,0,0,1,0,0v-3A1,1,0,0,1,35,6.89Z"/><path class="cls-4" d="M39,13.64H35a1.75,1.75,0,0,1-1.75-1.75v-4A1.75,1.75,0,0,1,35,6.14h4a1.76,1.76,0,0,1,1.75,1.75v4A1.75,1.75,0,0,1,39,13.64Zm-4-6a.25.25,0,0,0-.25.25v4a.25.25,0,0,0,.25.25h4a.25.25,0,0,0,.25-.25v-4A.25.25,0,0,0,39,7.64Z"/><path class="cls-4" d="M11,16.64H9.61a.75.75,0,0,1,0-1.5H11a.75.75,0,0,1,0,1.5Z"/><path class="cls-4" d="M6.38,16.64H5a.75.75,0,0,1,0-1.5H6.38a.75.75,0,0,1,0,1.5Z"/><path class="cls-4" d="M8,19.64a.76.76,0,0,1-.75-.75V17.51a.75.75,0,0,1,1.5,0v1.38A.76.76,0,0,1,8,19.64Z"/><path class="cls-4" d="M8,15a.76.76,0,0,1-.75-.75V12.89a.75.75,0,0,1,1.5,0v1.39A.76.76,0,0,1,8,15Z"/><path class="cls-4" d="M24,8.65H22.62a.75.75,0,0,1,0-1.5H24a.75.75,0,0,1,0,1.5Z"/><path class="cls-4" d="M19.39,8.65H18a.75.75,0,0,1,0-1.5h1.39a.75.75,0,0,1,0,1.5Z"/><path class="cls-4" d="M21,11.65a.76.76,0,0,1-.75-.75V9.51a.75.75,0,1,1,1.5,0V10.9A.75.75,0,0,1,21,11.65Z"/><path class="cls-4" d="M21,7a.76.76,0,0,1-.75-.75V4.9a.75.75,0,1,1,1.5,0V6.28A.75.75,0,0,1,21,7Z"/><path class="cls-4" d="M33,22.65H31.62a.75.75,0,1,1,0-1.5H33a.75.75,0,0,1,0,1.5Z"/><path class="cls-4" d="M28.39,22.65H27a.75.75,0,0,1,0-1.5h1.39a.75.75,0,0,1,0,1.5Z"/><path class="cls-4" d="M30,25.65a.76.76,0,0,1-.75-.75V23.51a.75.75,0,0,1,1.5,0V24.9A.75.75,0,0,1,30,25.65Z"/><path class="cls-4" d="M30,21a.75.75,0,0,1-.75-.75V18.9a.75.75,0,0,1,1.5,0v1.38A.74.74,0,0,1,30,21Z"/><path class="cls-4" d="M48,53.65H46.62a.75.75,0,0,1,0-1.5H48a.75.75,0,0,1,0,1.5Z"/><path class="cls-4" d="M43.39,53.65H42a.75.75,0,0,1,0-1.5h1.39a.75.75,0,0,1,0,1.5Z"/><path class="cls-4" d="M45,56.65a.75.75,0,0,1-.75-.75V54.52a.75.75,0,0,1,1.5,0V55.9A.74.74,0,0,1,45,56.65Z"/><path class="cls-4" d="M45,52a.76.76,0,0,1-.75-.75V49.9a.75.75,0,0,1,1.5,0v1.39A.75.75,0,0,1,45,52Z"/><path class="cls-4" d="M69,62.65H67.62a.75.75,0,0,1,0-1.5H69a.75.75,0,0,1,0,1.5Z"/><path class="cls-4" d="M64.39,62.65H63a.75.75,0,0,1,0-1.5h1.38a.75.75,0,0,1,0,1.5Z"/><path class="cls-4" d="M66,65.65a.74.74,0,0,1-.75-.75V63.52a.75.75,0,1,1,1.5,0V64.9A.75.75,0,0,1,66,65.65Z"/><path class="cls-4" d="M66,61a.75.75,0,0,1-.75-.75V58.9a.75.75,0,1,1,1.5,0v1.39A.76.76,0,0,1,66,61Z"/></svg>