<svg id="Layer_1" data-name="Layer 1" xmlns="http://www.w3.org/2000/svg" viewBox="0 0 47.16 46.76"><defs><style>.cls-1{fill:#dfdfdf;}</style></defs><path class="cls-1" d="M23.24,43.47a18.53,18.53,0,0,1-9-2.33.74.74,0,0,1,.72-1.3A17.16,17.16,0,0,0,23.24,42a16.85,16.85,0,0,0,7.58-1.77.75.75,0,0,1,.66,1.34A18.37,18.37,0,0,1,23.24,43.47Z"/><polygon class="cls-1" points="27.32 40.11 30.76 41.09 29.77 44.53 31.65 43.49 32.63 40.05 29.2 39.07 27.32 40.11"/><path class="cls-1" d="M41.05,25.66a.75.75,0,0,1-.74-.75,17.09,17.09,0,0,0-8-14.43.74.74,0,0,1-.23-1,.73.73,0,0,1,1-.23A18.56,18.56,0,0,1,41.8,24.91.76.76,0,0,1,41.05,25.66Z"/><polygon class="cls-1" points="34.08 13.52 33.13 10.07 36.58 9.13 34.72 8.07 31.27 9.01 32.21 12.46 34.08 13.52"/><path class="cls-1" d="M5.5,24H5.43a.74.74,0,0,1-.67-.81A18.56,18.56,0,0,1,8,14.36a18.79,18.79,0,0,1,6.9-6,.75.75,0,0,1,.68,1.33,17.1,17.1,0,0,0-9.3,13.61A.74.74,0,0,1,5.5,24Z"/><polygon class="cls-1" points="8.18 20.38 5.53 22.77 3.13 20.12 3.02 22.26 5.42 24.91 8.07 22.52 8.18 20.38"/><path class="cls-1" d="M23.24,12a6,6,0,1,1,6-6A6,6,0,0,1,23.24,12Zm0-10.47A4.49,4.49,0,1,0,27.73,6,4.5,4.5,0,0,0,23.24,1.49Z"/><path class="cls-1" d="M28.6,19H17.88a.75.75,0,0,1-.75-.74V16.64a6.11,6.11,0,0,1,12.21,0v1.58A.74.74,0,0,1,28.6,19Zm-10-1.49h9.23v-.83a4.62,4.62,0,0,0-9.23,0Z"/><path class="cls-1" d="M41.05,39.76a6,6,0,1,1,6-6A6,6,0,0,1,41.05,39.76Zm0-10.47a4.49,4.49,0,1,0,4.49,4.49A4.5,4.5,0,0,0,41.05,29.29Z"/><path class="cls-1" d="M46.41,46.76H35.69A.74.74,0,0,1,35,46V44.44a6.11,6.11,0,1,1,12.21,0V46A.75.75,0,0,1,46.41,46.76Zm-10-1.49h9.23v-.83a4.62,4.62,0,1,0-9.23,0Z"/><path class="cls-1" d="M6.1,39.76a6,6,0,1,1,6-6A6,6,0,0,1,6.1,39.76Zm0-10.47a4.49,4.49,0,1,0,4.5,4.49A4.5,4.5,0,0,0,6.1,29.29Z"/><path class="cls-1" d="M11.46,46.76H.75A.74.74,0,0,1,0,46V44.44a6.11,6.11,0,1,1,12.21,0V46A.74.74,0,0,1,11.46,46.76Zm-10-1.49h9.23v-.83a4.62,4.62,0,1,0-9.23,0Z"/></svg>