<svg id="Livello_1" data-name="Livello 1" xmlns="http://www.w3.org/2000/svg" viewBox="0 0 78.65 75.94"><defs><style>.cls-1{fill:#e8ebec;}.cls-2{fill:#c6acb3;}.cls-3{fill:#fff;}.cls-4{fill:#ac182e;}</style></defs><circle class="cls-1" cx="33.26" cy="61.94" r="14"/><circle class="cls-1" cx="12" cy="36.69" r="12"/><circle class="cls-1" cx="58.65" cy="20" r="20"/><path class="cls-2" d="M11,14.95H69a3,3,0,0,1,3,3v39a0,0,0,0,1,0,0H8a0,0,0,0,1,0,0v-39A3,3,0,0,1,11,14.95Z"/><path class="cls-3" d="M11,14.95H67a0,0,0,0,1,0,0v36a2,2,0,0,1-2,2H8a0,0,0,0,1,0,0v-35A3,3,0,0,1,11,14.95Z"/><path class="cls-4" d="M72,57.7H8A.75.75,0,0,1,7.26,57V18A3.75,3.75,0,0,1,11,14.2H69A3.76,3.76,0,0,1,72.76,18V57A.76.76,0,0,1,72,57.7ZM8.76,56.2h62.5V18A2.25,2.25,0,0,0,69,15.7H11A2.25,2.25,0,0,0,8.76,18Z"/><rect class="cls-2" x="26.01" y="62.95" width="28" height="6"/><path class="cls-3" d="M26,62.95H51a0,0,0,0,1,0,0v2a1,1,0,0,1-1,1H26a0,0,0,0,1,0,0v-3A0,0,0,0,1,26,62.95Z"/><path class="cls-4" d="M54,69.7H26a.76.76,0,0,1-.75-.75V63A.75.75,0,0,1,26,62.2H54a.75.75,0,0,1,.75.75v6A.76.76,0,0,1,54,69.7ZM26.75,68.2H53.26V63.7H26.75Z"/><path class="cls-2" d="M8,56.95H72a0,0,0,0,1,0,0v3a3,3,0,0,1-3,3H11a3,3,0,0,1-3-3v-3A0,0,0,0,1,8,56.95Z"/><path class="cls-3" d="M8,56.95H68a0,0,0,0,1,0,0v2a1,1,0,0,1-1,1H8a0,0,0,0,1,0,0v-3A0,0,0,0,1,8,56.95Z"/><path class="cls-4" d="M69,63.7H11A3.76,3.76,0,0,1,7.26,60V57A.74.74,0,0,1,8,56.2H72a.75.75,0,0,1,.75.75v3A3.76,3.76,0,0,1,69,63.7Zm-60.25-6V60A2.25,2.25,0,0,0,11,62.2H69A2.25,2.25,0,0,0,71.26,60V57.7Z"/><path class="cls-4" d="M64,69.7H16a.75.75,0,0,1,0-1.5H64a.75.75,0,0,1,0,1.5Z"/><circle class="cls-4" cx="40.01" cy="59.95" r="1"/><path class="cls-4" d="M69,43.69H65a.75.75,0,0,1,0-1.5h4a.75.75,0,0,1,0,1.5Z"/><path class="cls-4" d="M67,45.69a.75.75,0,0,1-.75-.75v-4a.75.75,0,0,1,1.5,0v4A.74.74,0,0,1,67,45.69Z"/><path class="cls-4" d="M63,7.69H59a.75.75,0,0,1,0-1.5h4a.75.75,0,0,1,0,1.5Z"/><path class="cls-4" d="M61,9.69a.76.76,0,0,1-.75-.75v-4a.75.75,0,1,1,1.5,0v4A.75.75,0,0,1,61,9.69Z"/><path class="cls-4" d="M20,9.69H16a.75.75,0,0,1,0-1.5h4a.75.75,0,0,1,0,1.5Z"/><path class="cls-4" d="M18,11.69a.76.76,0,0,1-.75-.75v-4a.75.75,0,0,1,1.5,0v4A.76.76,0,0,1,18,11.69Z"/><path class="cls-4" d="M62,51.7H58a.75.75,0,0,1,0-1.5h4a.75.75,0,0,1,0,1.5Z"/><path class="cls-4" d="M60,53.7a.76.76,0,0,1-.75-.75V49a.75.75,0,0,1,1.5,0v4A.75.75,0,0,1,60,53.7Z"/><path class="cls-4" d="M19,48.69H15a.75.75,0,0,1,0-1.5h4a.75.75,0,0,1,0,1.5Z"/><path class="cls-4" d="M17,50.69a.75.75,0,0,1-.75-.75v-4a.75.75,0,0,1,1.5,0v4A.75.75,0,0,1,17,50.69Z"/><path class="cls-4" d="M16,34.69H12a.75.75,0,0,1,0-1.5h4a.75.75,0,0,1,0,1.5Z"/><path class="cls-4" d="M14,36.69a.75.75,0,0,1-.75-.75v-4a.75.75,0,1,1,1.5,0v4A.75.75,0,0,1,14,36.69Z"/><polygon class="cls-3" points="40.01 4.95 43.75 10.11 49.19 6.77 50.67 12.98 56.98 11.97 55.97 18.28 62.18 19.76 58.84 25.2 64.01 28.95 58.84 32.69 62.18 38.13 55.97 39.61 56.98 45.92 50.67 44.91 49.19 51.12 43.75 47.78 40.01 52.95 36.26 47.78 30.82 51.12 29.34 44.91 23.04 45.92 24.04 39.61 17.83 38.13 21.18 32.69 16.01 28.95 21.18 25.2 17.83 19.76 24.04 18.28 23.04 11.97 29.34 12.98 30.82 6.77 36.26 10.11 40.01 4.95"/><path class="cls-2" d="M58.84,32.69,64,29,58.84,25.2l3.34-5.44L56,18.28,57,12l-6.31,1L49.19,6.77,46.93,8.16l1.77,6.09a1,1,0,0,0,1.11.71l4.11-.59a.49.49,0,0,1,.55.63l-1.28,4.33a1,1,0,0,0,.72,1.25l3.31.8a.49.49,0,0,1,.31.74l-1.85,3A1,1,0,0,0,56,26.47l2.86,2.07a.51.51,0,0,1,0,.81L56,31.42a1,1,0,0,0-.27,1.34l1.85,3a.49.49,0,0,1-.31.74l-3.31.8a1,1,0,0,0-.72,1.25l1.26,4.26a.5.5,0,0,1-.58.64l-3.72-.82a1,1,0,0,0-1.18.73l-1.69,6.57,1.91,1.18,1.48-6.21,6.31,1-1-6.31,6.21-1.48Z"/><path class="cls-4" d="M40,53.7a.77.77,0,0,1-.61-.31l-3.34-4.61-4.85,3a.77.77,0,0,1-.68.05.75.75,0,0,1-.44-.52l-1.32-5.53-5.62.9a.75.75,0,0,1-.65-.21.77.77,0,0,1-.21-.65l.9-5.62-5.53-1.32a.75.75,0,0,1-.52-.44.77.77,0,0,1,.05-.68l3-4.85-4.6-3.34a.72.72,0,0,1-.31-.6.74.74,0,0,1,.31-.61L20.17,25l-3-4.85a.77.77,0,0,1-.05-.68.75.75,0,0,1,.52-.44l5.53-1.32-.9-5.62a.78.78,0,0,1,.21-.65.75.75,0,0,1,.65-.21l5.62.9L30.09,6.6a.75.75,0,0,1,.44-.52.77.77,0,0,1,.68,0l4.85,3L39.4,4.5A.76.76,0,0,1,40,4.2h0a.74.74,0,0,1,.6.3L44,9.11l4.85-3a.77.77,0,0,1,.68,0,.75.75,0,0,1,.44.52l1.32,5.53,5.62-.9a.75.75,0,0,1,.65.21.78.78,0,0,1,.21.65l-.9,5.62L62.35,19a.75.75,0,0,1,.52.44.77.77,0,0,1,0,.68l-3,4.85,4.61,3.34a.77.77,0,0,1,.31.61.75.75,0,0,1-.31.6l-4.61,3.34,3,4.85a.77.77,0,0,1,0,.68.75.75,0,0,1-.52.44l-5.53,1.32.9,5.62a.77.77,0,0,1-.21.65.75.75,0,0,1-.65.21l-5.62-.9-1.32,5.53a.75.75,0,0,1-.44.52.77.77,0,0,1-.68-.05l-4.85-3-3.34,4.61A.75.75,0,0,1,40,53.7ZM36.26,47a.74.74,0,0,1,.61.31L40,51.67l3.13-4.33a.74.74,0,0,1,1-.2l4.56,2.8,1.24-5.2a.75.75,0,0,1,.85-.57l5.28.84-.84-5.28a.75.75,0,0,1,.57-.85L61,37.64l-2.8-4.56a.74.74,0,0,1,.2-1L62.73,29,58.4,25.81a.74.74,0,0,1-.2-1L61,20.25,55.8,19a.75.75,0,0,1-.57-.85l.84-5.28-5.28.84a.75.75,0,0,1-.85-.56L48.7,8l-4.56,2.8a.74.74,0,0,1-1-.2L40,6.22l-3.14,4.33a.74.74,0,0,1-1,.2L31.31,8l-1.24,5.21a.75.75,0,0,1-.85.56l-5.28-.84.84,5.28a.75.75,0,0,1-.57.85L19,20.25l2.8,4.56a.75.75,0,0,1-.19,1L17.28,29l4.34,3.13a.75.75,0,0,1,.19,1L19,37.64l5.2,1.24a.75.75,0,0,1,.57.85L23.94,45l5.28-.84a.74.74,0,0,1,.85.57l1.24,5.2,4.56-2.8A.68.68,0,0,1,36.26,47Z"/><path class="cls-3" d="M53,29a13,13,0,1,0-22,9.36,7.31,7.31,0,0,1,2.19,5.26V45H46.82V43.43a7.33,7.33,0,0,1,2.27-5.21A12.93,12.93,0,0,0,53,29Z"/><path class="cls-2" d="M44.35,16.7a13,13,0,0,1,1.09,19.52,7.3,7.3,0,0,0-2.28,5.21L42.69,45h4.13V43.43a7.33,7.33,0,0,1,2.27-5.21A13,13,0,0,0,44.35,16.7Z"/><path class="cls-4" d="M46.82,45.7H33.2a.75.75,0,0,1-.75-.75V43.57a6.57,6.57,0,0,0-2-4.72,13.73,13.73,0,0,1,8.76-23.63A13.73,13.73,0,0,1,49.62,38.76a6.49,6.49,0,0,0-2,4.67V45A.76.76,0,0,1,46.82,45.7ZM34,44.2H46.07v-.77a8,8,0,0,1,2.5-5.74,12.25,12.25,0,0,0-9.24-21,12.24,12.24,0,0,0-7.8,21.06A8.08,8.08,0,0,1,34,43.57Z"/><path class="cls-4" d="M42.64,45.7H37.3a.74.74,0,0,1-.72-.55l-3.8-13.8a.75.75,0,0,1,.29-.81.75.75,0,0,1,.85,0L37,32.58l2.53-2a.74.74,0,0,1,.93,0l2.53,2,3.09-2.06a.75.75,0,0,1,1.14.83l-3.86,13.8A.76.76,0,0,1,42.64,45.7Zm-4.77-1.5h4.2l3.17-11.31-1.86,1.25a.77.77,0,0,1-.89,0l-2.48-2-2.49,2a.77.77,0,0,1-.89,0l-1.87-1.25Z"/><path class="cls-2" d="M34.51,44.95h11a0,0,0,0,1,0,0v6a2,2,0,0,1-2,2h-7a2,2,0,0,1-2-2v-6A0,0,0,0,1,34.51,44.95Z"/><path class="cls-3" d="M34.51,44.94h8a0,0,0,0,1,0,0v5a1,1,0,0,1-1,1h-7a0,0,0,0,1,0,0v-6A0,0,0,0,1,34.51,44.94Z"/><path class="cls-4" d="M43.51,53.7h-7A2.75,2.75,0,0,1,33.76,51V45a.74.74,0,0,1,.75-.75h11a.75.75,0,0,1,.75.75v6A2.76,2.76,0,0,1,43.51,53.7Zm-8.25-8V51a1.25,1.25,0,0,0,1.25,1.25h7A1.25,1.25,0,0,0,44.76,51V45.7Z"/><path class="cls-4" d="M40.5,49.7h-6a.75.75,0,0,1,0-1.5h6a.75.75,0,0,1,0,1.5Z"/></svg>