<svg id="Livello_1" data-name="Livello 1" xmlns="http://www.w3.org/2000/svg" viewBox="0 0 80.32 80.83"><defs><style>.cls-1{fill:#e8ebec;}.cls-2{fill:#c6acb3;}.cls-3{fill:#fff;}.cls-4{fill:#ac182e;}</style></defs><circle class="cls-1" cx="30.06" cy="66.83" r="14"/><circle class="cls-1" cx="68.32" cy="41.57" r="12"/><circle class="cls-1" cx="20" cy="20" r="20"/><rect class="cls-2" x="8.81" y="11.07" width="50" height="62" rx="2"/><path class="cls-3" d="M10.81,11.07h45a0,0,0,0,1,0,0v58a1,1,0,0,1-1,1h-46a0,0,0,0,1,0,0v-57A2,2,0,0,1,10.81,11.07Z"/><path class="cls-4" d="M56.82,73.82h-46a2.75,2.75,0,0,1-2.75-2.75v-58a2.76,2.76,0,0,1,2.75-2.75h46a2.76,2.76,0,0,1,2.75,2.75v58A2.75,2.75,0,0,1,56.82,73.82Zm-46-62a1.25,1.25,0,0,0-1.25,1.25v58a1.25,1.25,0,0,0,1.25,1.25h46a1.26,1.26,0,0,0,1.25-1.25v-58a1.26,1.26,0,0,0-1.25-1.25Z"/><path class="cls-4" d="M13.82,13.82a.74.74,0,0,1-.75-.75v-4a.75.75,0,0,1,1.5,0v4A.75.75,0,0,1,13.82,13.82Z"/><path class="cls-4" d="M20.48,13.82a.75.75,0,0,1-.75-.75v-4a.75.75,0,0,1,1.5,0v4A.74.74,0,0,1,20.48,13.82Z"/><path class="cls-4" d="M27.15,13.82a.75.75,0,0,1-.75-.75v-4a.75.75,0,0,1,1.5,0v4A.75.75,0,0,1,27.15,13.82Z"/><path class="cls-4" d="M33.82,13.82a.74.74,0,0,1-.75-.75v-4a.75.75,0,0,1,1.5,0v4A.75.75,0,0,1,33.82,13.82Z"/><path class="cls-4" d="M40.48,13.82a.75.75,0,0,1-.75-.75v-4a.75.75,0,0,1,1.5,0v4A.74.74,0,0,1,40.48,13.82Z"/><path class="cls-4" d="M47.15,13.82a.75.75,0,0,1-.75-.75v-4a.75.75,0,0,1,1.5,0v4A.75.75,0,0,1,47.15,13.82Z"/><path class="cls-4" d="M53.82,13.82a.74.74,0,0,1-.75-.75v-4a.75.75,0,0,1,1.5,0v4A.75.75,0,0,1,53.82,13.82Z"/><polygon class="cls-2" points="14.81 26.08 14.81 62.08 19.82 62.08 19.82 28.08 14.81 26.08"/><path class="cls-3" d="M14.82,26.08v34h2a1,1,0,0,0,1-1V27.28Z"/><path class="cls-4" d="M19.82,62.83h-5a.75.75,0,0,1-.75-.75v-36a.75.75,0,0,1,1-.7l5,2a.76.76,0,0,1,.48.7v34A.76.76,0,0,1,19.82,62.83Zm-4.25-1.5h3.5V28.58l-3.5-1.4Z"/><polygon class="cls-2" points="24.82 26.08 19.82 28.08 19.82 62.08 24.82 62.08 24.82 26.08"/><path class="cls-3" d="M22.82,26.88l-3,1.2v32h2a1,1,0,0,0,1-1Z"/><path class="cls-4" d="M24.82,62.83h-5a.75.75,0,0,1-.75-.75v-34a.75.75,0,0,1,.47-.7l5-2a.76.76,0,0,1,1,.7v36A.76.76,0,0,1,24.82,62.83Zm-4.25-1.5h3.5V27.18l-3.5,1.4Z"/><path class="cls-4" d="M25.82,62.83h-12a.75.75,0,0,1,0-1.5h12a.75.75,0,1,1,0,1.5Z"/><polygon class="cls-2" points="14.81 26.08 19.82 28.08 24.82 26.08 19.82 19.08 14.81 26.08"/><path class="cls-3" d="M16.48,23.74l2.59,1a2,2,0,0,0,1.49,0l2.59-1-3.33-4.66Z"/><path class="cls-4" d="M19.82,28.83a.67.67,0,0,1-.28-.06l-5-2a.7.7,0,0,1-.44-.48.72.72,0,0,1,.11-.65l5-7a.78.78,0,0,1,1.22,0l5,7a.79.79,0,0,1,.11.65.74.74,0,0,1-.45.48l-5,2A.66.66,0,0,1,19.82,28.83ZM16,25.74l3.84,1.53,3.83-1.53-3.83-5.37Z"/><path class="cls-2" d="M14.82,62.08h10a0,0,0,0,1,0,0v3a2,2,0,0,1-2,2h-6a2,2,0,0,1-2-2v-3A0,0,0,0,1,14.82,62.08Z"/><path class="cls-3" d="M14.82,62.08h8a0,0,0,0,1,0,0v2a1,1,0,0,1-1,1h-7a0,0,0,0,1,0,0v-3A0,0,0,0,1,14.82,62.08Z"/><path class="cls-4" d="M22.82,67.83h-6a2.75,2.75,0,0,1-2.75-2.75v-3a.74.74,0,0,1,.75-.75h10a.75.75,0,0,1,.75.75v3A2.76,2.76,0,0,1,22.82,67.83Zm-7.25-5v2.25a1.26,1.26,0,0,0,1.25,1.25h6a1.26,1.26,0,0,0,1.25-1.25V62.83Z"/><rect class="cls-2" x="40.81" y="20.07" width="32" height="18" rx="1"/><path class="cls-3" d="M41.81,20.07h28a0,0,0,0,1,0,0v14a1,1,0,0,1-1,1h-28a0,0,0,0,1,0,0v-14A1,1,0,0,1,41.81,20.07Z"/><path class="cls-4" d="M71.81,38.82h-30a1.75,1.75,0,0,1-1.75-1.75v-16a1.76,1.76,0,0,1,1.75-1.75h30a1.75,1.75,0,0,1,1.75,1.75v16A1.75,1.75,0,0,1,71.81,38.82Zm-30-18a.25.25,0,0,0-.25.25v16a.25.25,0,0,0,.25.25h30a.25.25,0,0,0,.25-.25v-16a.25.25,0,0,0-.25-.25Z"/><path class="cls-4" d="M62.81,31.82h-6a.75.75,0,0,1,0-1.5h6a.75.75,0,0,1,0,1.5Z"/><path class="cls-4" d="M66.81,27.82h-4a.75.75,0,0,1,0-1.5h4a.75.75,0,0,1,0,1.5Z"/><path class="cls-4" d="M59.81,27.82h-3a.75.75,0,0,1,0-1.5h3a.75.75,0,0,1,0,1.5Z"/><path class="cls-4" d="M51.82,29.82H50.43a.75.75,0,0,1,0-1.5h1.39a.75.75,0,0,1,0,1.5Z"/><path class="cls-4" d="M47.2,29.82H45.82a.75.75,0,0,1,0-1.5H47.2a.75.75,0,0,1,0,1.5Z"/><path class="cls-4" d="M48.82,32.82a.74.74,0,0,1-.75-.75V30.69a.75.75,0,0,1,1.5,0v1.38A.75.75,0,0,1,48.82,32.82Z"/><path class="cls-4" d="M48.82,28.21a.75.75,0,0,1-.75-.75V26.07a.75.75,0,0,1,1.5,0v1.39A.76.76,0,0,1,48.82,28.21Z"/><rect class="cls-2" x="30.81" y="45.08" width="42" height="20"/><path class="cls-3" d="M30.81,45.08h39a0,0,0,0,1,0,0v16a1,1,0,0,1-1,1h-38a0,0,0,0,1,0,0v-17A0,0,0,0,1,30.81,45.08Z"/><path class="cls-4" d="M72.81,65.83h-42a.76.76,0,0,1-.75-.75v-20a.75.75,0,0,1,.75-.75h42a.74.74,0,0,1,.75.75v20A.75.75,0,0,1,72.81,65.83Zm-41.25-1.5h40.5V45.83H31.56Z"/><polygon class="cls-2" points="51.81 55.07 30.81 45.08 72.81 45.08 51.81 55.07"/><polygon class="cls-3" points="48.81 53.65 30.81 45.08 66.81 45.08 48.81 53.65"/><path class="cls-4" d="M51.81,55.82a.71.71,0,0,1-.32-.07l-21-10a.77.77,0,0,1-.41-.84.75.75,0,0,1,.73-.58h42a.75.75,0,0,1,.33,1.42l-21,10A.78.78,0,0,1,51.81,55.82Zm-17.68-10,17.68,8.41,17.68-8.41Z"/><path class="cls-4" d="M64.81,60.83h-6a.75.75,0,0,1,0-1.5h6a.75.75,0,0,1,0,1.5Z"/><path class="cls-4" d="M68.81,56.83h-4a.75.75,0,0,1,0-1.5h4a.75.75,0,0,1,0,1.5Z"/><path class="cls-4" d="M61.81,56.83h-3a.75.75,0,0,1,0-1.5h3a.75.75,0,0,1,0,1.5Z"/><path class="cls-4" d="M40.81,58.83H39.43a.75.75,0,1,1,0-1.5h1.38a.75.75,0,0,1,0,1.5Z"/><path class="cls-4" d="M36.2,58.83H34.81a.75.75,0,0,1,0-1.5H36.2a.75.75,0,0,1,0,1.5Z"/><path class="cls-4" d="M37.81,61.83a.76.76,0,0,1-.75-.75V59.69a.75.75,0,0,1,1.5,0v1.39A.75.75,0,0,1,37.81,61.83Z"/><path class="cls-4" d="M37.81,57.21a.76.76,0,0,1-.75-.75V55.08a.75.75,0,0,1,1.5,0v1.38A.75.75,0,0,1,37.81,57.21Z"/><path class="cls-4" d="M5.81,40.13h-4a.75.75,0,0,1,0-1.5h4a.75.75,0,1,1,0,1.5Z"/><path class="cls-4" d="M3.81,42.13a.76.76,0,0,1-.75-.75v-4a.75.75,0,1,1,1.5,0v4A.75.75,0,0,1,3.81,42.13Z"/><circle class="cls-4" cx="3.81" cy="45.38" r="0.75"/><circle class="cls-4" cx="3.81" cy="48.38" r="0.75"/><circle class="cls-4" cx="3.81" cy="52.38" r="0.75"/><circle class="cls-4" cx="3.81" cy="58.38" r="0.75"/></svg>